<mxfile host="jMi">
  <diagram id="mkW" name="In progress">
    <mxGraphModel dx="0" dy="0" background="#FFFAFA" grid="0" gridSize="10" guides="1" tooltips="1" connect="1" arrows="1" fold="1" page="1" pageScale="1" pageWidth="1169" pageHeight="827" math="0" shadow="0">
      <root>
        <mxCell id="page_root_mkW" parent="mkW"/>
        <mxCell id="node_root_mkW" parent="page_root_mkW"/>
      </root>
    </mxGraphModel>
  </diagram>
  <diagram id="4lj" name="To Do">
    <mxGraphModel dx="0" dy="0" background="#FFFAFA" grid="0" gridSize="10" guides="1" tooltips="1" connect="1" arrows="1" fold="1" page="1" pageScale="1" pageWidth="1169" pageHeight="827" math="0" shadow="0">
      <root>
        <mxCell id="page_root_4lj" parent="4lj"/>
        <mxCell id="node_root_4lj" parent="page_root_4lj"/>
        <mxCell id="4lj-2" value="Support the different engines: [Ada, Babbage, Curie, Davinci]" style="whiteSpace=wrap;html=1;rounded=1;glass=1;fillColor=#dae8fc;strokeColor=#6c8ebf;fontColor=#333333" vertex="1" parent="node_root_4lj">
          <mxGeometry x="10" y="10" width="300" height="60" as="geometry"/>
        </mxCell>
      </root>
    </mxGraphModel>
  </diagram>
  <diagram id="XMj" name="Done">
    <mxGraphModel dx="0" dy="0" background="#FFFAFA" grid="0" gridSize="10" guides="1" tooltips="1" connect="1" arrows="1" fold="1" page="1" pageScale="1" pageWidth="1169" pageHeight="827" math="0" shadow="0">
      <root>
        <mxCell id="page_root_XMj" parent="XMj"/>
        <mxCell id="node_root_XMj" parent="page_root_XMj"/>
      </root>
    </mxGraphModel>
  </diagram>
</mxfile>